# xmcd CD database file
#
# Track frame offsets:
#	150
#	17738
#	34689
#	60489
#
# Disc length: 1115 seconds
#
# Revision: 0
# Processed by: cddbd v1.5.1PL0 Copyright (c) Steve Scherf et al.
# Submitted via: CDex 1.51
#
DISCID=27045904
DTITLE=Scar - 時のカケラ
DYEAR=1900
DGENRE=J-Pop
TTITLE0=Love is dead
TTITLE1=DAYS
TTITLE2=時のカケラ
TTITLE3=CLOUD
EXTD=
EXTT0=
EXTT1=
EXTT2=
EXTT3=
PLAYORDER=
